<svg width="57" height="57" viewBox="0 0 57 57" fill="none" xmlns="http://www.w3.org/2000/svg">
   <g clip-path="url(#clip0)">
      <path d="M30.8265 30.8255C30.4794 31.1726 30.1125 31.4866 29.7358 31.7832L39.52 42.7613C40.041 43.2823 40.8851 43.2823 41.4061 42.7613L42.8207 41.3467C43.3417 40.8257 43.3417 39.9816 42.8207 39.4606L31.9643 29.4897C31.6177 29.9532 31.2475 30.4045 30.8265 30.8255ZM40.9346 41.1109C40.5441 41.5013 39.9104 41.5013 39.52 41.1109C39.1295 40.7204 39.1295 40.0867 39.52 39.6963C39.9104 39.3058 40.5441 39.3058 40.9346 39.6963C41.325 40.0867 41.325 40.7204 40.9346 41.1109Z" fill="white"/>
      <path d="M16.0134 16.0125C12.6067 19.4193 12.6067 24.9616 16.0134 28.3684C19.4202 31.7752 24.9625 31.7752 28.3693 28.3684C31.7761 24.9616 31.7761 19.4193 28.3693 16.0125C24.9625 12.6058 19.4198 12.6062 16.0134 16.0125Z" fill="white"/>
      <path d="M14.0284 14.0274C9.52009 18.5357 9.5196 25.8458 14.0279 30.354C18.198 34.5242 24.7607 34.8288 29.2907 31.2844C29.658 30.9972 30.0163 30.6926 30.3545 30.3545C30.7694 29.9396 31.1325 29.4945 31.471 29.0371C34.8118 24.5184 34.4482 18.1222 30.3545 14.0284C25.8462 9.51917 18.5366 9.51917 14.0284 14.0274ZM29.8934 27.5715C29.5826 28.0162 29.237 28.4439 28.8405 28.8404C28.4996 29.1813 28.1327 29.4803 27.7559 29.758C24.0785 32.465 18.8672 32.1661 15.5415 28.8404C11.8749 25.1738 11.8748 19.2081 15.5415 15.5414C19.2081 11.8749 25.1738 11.8748 28.8405 15.5414C32.1109 18.8111 32.4566 23.9059 29.8934 27.5715Z" fill="white"/>
   </g>
   <defs>
      <clipPath id="clip0">
         <rect width="39.6769" height="39.6769" fill="white" transform="translate(56.1116 28.0558) rotate(135)"/>
      </clipPath>
   </defs>
</svg>