<?xml version="1.0" standalone="no"?>
<!DOCTYPE svg PUBLIC "-//W3C//DTD SVG 20010904//EN"
 "http://www.w3.org/TR/2001/REC-SVG-20010904/DTD/svg10.dtd">
<svg version="1.0" xmlns="http://www.w3.org/2000/svg"
 width="28.000000pt" height="28.000000pt" viewBox="0 0 28.000000 28.000000"
 preserveAspectRatio="xMidYMid meet">

<g transform="translate(0.000000,28.000000) scale(0.100000,-0.100000)"
fill="#D3494E" stroke="none">
<path d="M198 269 c-10 -5 -18 -21 -18 -34 0 -35 -73 -78 -107 -62 -20 9 -27
7 -45 -11 -19 -18 -20 -25 -9 -48 11 -24 16 -26 53 -21 54 7 108 -18 108 -50
0 -33 35 -49 66 -28 49 32 20 82 -43 72 -27 -5 -45 -1 -70 14 -43 27 -42 43 7
74 31 19 44 23 63 16 18 -7 31 -5 46 5 27 20 27 49 -1 68 -26 19 -27 19 -50 5z"/>
</g>
</svg>
