<?xml version="1.0" standalone="no"?>
<!DOCTYPE svg PUBLIC "-//W3C//DTD SVG 20010904//EN"
 "http://www.w3.org/TR/2001/REC-SVG-20010904/DTD/svg10.dtd">
<svg version="1.0" xmlns="http://www.w3.org/2000/svg"
 width="28.000000pt" height="26.000000pt" viewBox="0 0 28.000000 26.000000"
 preserveAspectRatio="xMidYMid meet">

<g transform="translate(0.000000,26.000000) scale(0.100000,-0.100000)"
fill="#000000" stroke="none">
<path d="M33 235 c-29 -21 -38 -66 -19 -103 15 -30 111 -122 127 -122 16 0
129 112 129 129 0 10 -7 5 -20 -14 -10 -16 -39 -47 -65 -68 l-45 -38 -51 43
c-50 42 -79 83 -79 111 0 8 9 26 21 41 25 31 61 34 89 6 l20 -20 20 20 c38 38
83 21 110 -40 10 -24 10 -24 5 5 -11 57 -77 85 -117 48 -17 -15 -19 -15 -36 0
-23 21 -61 22 -89 2z"/>
</g>
</svg>
